<svg width="140" height="32" viewBox="0 0 140 32" fill="none" xmlns="http://www.w3.org/2000/svg">
<path d="M24.0625 21.4338C25.3271 20.3715 26.3373 19.0392 27.0187 17.5348C27.7001 16.0304 28.0355 14.3924 28 12.7413C27.875 7.02751 23.2987 2.31626 17.595 2.01626C16.1233 1.93616 14.6506 2.15261 13.2642 2.65277C11.8778 3.15293 10.6061 3.92659 9.52455 4.92781C8.443 5.92903 7.57368 7.13739 6.96821 8.48112C6.36275 9.82485 6.03349 11.2766 6 12.75L3.19375 18.1475C3.1825 18.17 3.17125 18.1925 3.16125 18.215C2.96006 18.6839 2.94572 19.212 3.12117 19.6912C3.29661 20.1704 3.64857 20.5644 4.105 20.7925L4.13625 20.8063L7 22.1175V26C7 26.5304 7.21071 27.0392 7.58578 27.4142C7.96086 27.7893 8.46956 28 9 28H15C15.2652 28 15.5196 27.8947 15.7071 27.7071C15.8946 27.5196 16 27.2652 16 27C16 26.7348 15.8946 26.4804 15.7071 26.2929C15.5196 26.1054 15.2652 26 15 26H9V21.4763C9.00014 21.2846 8.9452 21.0969 8.8417 20.9356C8.73821 20.7742 8.59053 20.646 8.41625 20.5663L5 19L7.88375 13.4575C7.95891 13.3166 7.9988 13.1597 8 13C7.99971 10.9604 8.69219 8.98124 9.96397 7.38674C11.2358 5.79224 13.0114 4.677 15 4.22376V6.17251C14.3328 6.4084 13.7704 6.87258 13.4124 7.48299C13.0543 8.0934 12.9235 8.81075 13.0432 9.50824C13.1629 10.2057 13.5253 10.8385 14.0663 11.2946C14.6074 11.7508 15.2923 12.0009 16 12.0009C16.7077 12.0009 17.3926 11.7508 17.9337 11.2946C18.4747 10.8385 18.8371 10.2057 18.9568 9.50824C19.0765 8.81075 18.9457 8.0934 18.5876 7.48299C18.2296 6.87258 17.6672 6.4084 17 6.17251V4.00001C17.1625 4.00001 17.325 4.00001 17.4875 4.01251C19.2608 4.11409 20.9649 4.73627 22.3865 5.80124C23.8081 6.86621 24.8841 8.32669 25.48 10H23C22.8533 9.99995 22.7084 10.0322 22.5755 10.0944C22.4427 10.1566 22.3251 10.2473 22.2312 10.36L19.0425 14.1875C18.3775 13.9397 17.6462 13.9351 16.9781 14.1744C16.31 14.4138 15.748 14.8817 15.3916 15.4954C15.0352 16.1092 14.9073 16.8292 15.0306 17.5281C15.1539 18.227 15.5203 18.8598 16.0652 19.3146C16.61 19.7694 17.2982 20.0168 18.0079 20.0132C18.7176 20.0095 19.4031 19.755 19.9432 19.2947C20.4834 18.8343 20.8433 18.1977 20.9594 17.4976C21.0755 16.7974 20.9402 16.0788 20.5775 15.4688L23.4687 12H25.9425C25.9725 12.26 25.9908 12.5225 25.9975 12.7875C26.0287 14.2198 25.7187 15.639 25.0932 16.9278C24.4676 18.2167 23.5445 19.3383 22.4 20.2C22.259 20.3057 22.1484 20.4469 22.0795 20.6091C22.0105 20.7713 21.9857 20.9489 22.0075 21.1238L23.0075 29.1238C23.0379 29.3653 23.1554 29.5874 23.3379 29.7485C23.5204 29.9095 23.7553 29.9985 23.9987 29.9988C24.0405 29.9988 24.0823 29.9962 24.1237 29.9913C24.2541 29.975 24.38 29.9333 24.4942 29.8684C24.6084 29.8035 24.7087 29.7168 24.7894 29.6131C24.87 29.5094 24.9295 29.3909 24.9644 29.2643C24.9992 29.1376 25.0088 29.0054 24.9925 28.875L24.0625 21.4338ZM16 10C15.8022 10 15.6089 9.94136 15.4444 9.83148C15.28 9.7216 15.1518 9.56542 15.0761 9.38269C15.0004 9.19997 14.9806 8.9989 15.0192 8.80492C15.0578 8.61094 15.153 8.43275 15.2929 8.2929C15.4327 8.15305 15.6109 8.05781 15.8049 8.01922C15.9989 7.98064 16.2 8.00044 16.3827 8.07613C16.5654 8.15182 16.7216 8.27999 16.8315 8.44444C16.9413 8.60889 17 8.80223 17 9.00001C17 9.26523 16.8946 9.51958 16.7071 9.70712C16.5196 9.89465 16.2652 10 16 10ZM18 18C17.8022 18 17.6089 17.9414 17.4444 17.8315C17.28 17.7216 17.1518 17.5654 17.0761 17.3827C17.0004 17.2 16.9806 16.9989 17.0192 16.8049C17.0578 16.6109 17.153 16.4328 17.2929 16.2929C17.4327 16.153 17.6109 16.0578 17.8049 16.0192C17.9989 15.9806 18.2 16.0004 18.3827 16.0761C18.5654 16.1518 18.7216 16.28 18.8315 16.4444C18.9413 16.6089 19 16.8022 19 17C19 17.2652 18.8946 17.5196 18.7071 17.7071C18.5196 17.8947 18.2652 18 18 18Z" fill="#E5E5E9"/>
<path d="M47.0795 16.9318V24.5H43.4489V7.04545H46.9773V13.7188H47.1307C47.4261 12.946 47.9034 12.3409 48.5625 11.9034C49.2216 11.4602 50.0483 11.2386 51.0426 11.2386C51.9517 11.2386 52.7443 11.4375 53.4205 11.8352C54.1023 12.2273 54.6307 12.7926 55.0057 13.5312C55.3864 14.2642 55.5739 15.142 55.5682 16.1648V24.5H51.9375V16.8125C51.9432 16.0057 51.7386 15.3778 51.3239 14.929C50.9148 14.4801 50.3409 14.2557 49.6023 14.2557C49.108 14.2557 48.6705 14.3608 48.2898 14.571C47.9148 14.7812 47.6193 15.0881 47.4034 15.4915C47.1932 15.8892 47.0852 16.3693 47.0795 16.9318ZM65.8203 18.9261V11.4091H69.451V24.5H65.9652V22.1222H65.8288C65.5334 22.8892 65.0419 23.5057 64.3544 23.9716C63.6726 24.4375 62.8402 24.6705 61.8572 24.6705C60.9822 24.6705 60.2124 24.4716 59.5476 24.0739C58.8828 23.6761 58.3629 23.1108 57.9879 22.3778C57.6186 21.6449 57.4311 20.767 57.4254 19.7443V11.4091H61.0561V19.0966C61.0618 19.8693 61.2692 20.4801 61.6783 20.929C62.0874 21.3778 62.6357 21.6023 63.3232 21.6023C63.7607 21.6023 64.1697 21.5028 64.5504 21.304C64.9311 21.0994 65.2379 20.7983 65.4709 20.4006C65.7095 20.0028 65.826 19.5114 65.8203 18.9261ZM71.3551 24.5V11.4091H74.8153V13.7188H74.9688C75.2415 12.9517 75.696 12.3466 76.3324 11.9034C76.9688 11.4602 77.7301 11.2386 78.6165 11.2386C79.5142 11.2386 80.2784 11.4631 80.9091 11.9119C81.5398 12.3551 81.9602 12.9574 82.1705 13.7188H82.3068C82.5739 12.9688 83.0568 12.3693 83.7557 11.9205C84.4602 11.4659 85.2926 11.2386 86.2528 11.2386C87.4744 11.2386 88.4659 11.6278 89.2273 12.4062C89.9943 13.179 90.3778 14.2756 90.3778 15.696V24.5H86.7557V16.4119C86.7557 15.6847 86.5625 15.1392 86.1761 14.7756C85.7898 14.4119 85.3068 14.2301 84.7273 14.2301C84.0682 14.2301 83.554 14.4403 83.1847 14.8608C82.8153 15.2756 82.6307 15.8239 82.6307 16.5057V24.5H79.1108V16.3352C79.1108 15.6932 78.9261 15.1818 78.5568 14.8011C78.1932 14.4205 77.7131 14.2301 77.1165 14.2301C76.7131 14.2301 76.3494 14.3324 76.0256 14.5369C75.7074 14.7358 75.4545 15.017 75.267 15.3807C75.0795 15.7386 74.9858 16.1591 74.9858 16.642V24.5H71.3551ZM98.1605 24.7557C96.8366 24.7557 95.6918 24.4744 94.7259 23.9119C93.7656 23.3437 93.0241 22.554 92.5014 21.5426C91.9787 20.5256 91.7173 19.3466 91.7173 18.0057C91.7173 16.6534 91.9787 15.4716 92.5014 14.4602C93.0241 13.4432 93.7656 12.6534 94.7259 12.0909C95.6918 11.5227 96.8366 11.2386 98.1605 11.2386C99.4844 11.2386 100.626 11.5227 101.587 12.0909C102.553 12.6534 103.297 13.4432 103.82 14.4602C104.342 15.4716 104.604 16.6534 104.604 18.0057C104.604 19.3466 104.342 20.5256 103.82 21.5426C103.297 22.554 102.553 23.3437 101.587 23.9119C100.626 24.4744 99.4844 24.7557 98.1605 24.7557ZM98.1776 21.9432C98.7798 21.9432 99.2827 21.7727 99.6861 21.4318C100.089 21.0852 100.393 20.6136 100.598 20.017C100.808 19.4205 100.913 18.7415 100.913 17.9801C100.913 17.2188 100.808 16.5398 100.598 15.9432C100.393 15.3466 100.089 14.875 99.6861 14.5284C99.2827 14.1818 98.7798 14.0085 98.1776 14.0085C97.5696 14.0085 97.0582 14.1818 96.6435 14.5284C96.2344 14.875 95.9247 15.3466 95.7145 15.9432C95.5099 16.5398 95.4077 17.2188 95.4077 17.9801C95.4077 18.7415 95.5099 19.4205 95.7145 20.017C95.9247 20.6136 96.2344 21.0852 96.6435 21.4318C97.0582 21.7727 97.5696 21.9432 98.1776 21.9432ZM109.595 16.9318V24.5H105.964V11.4091H109.425V13.7188H109.578C109.868 12.9574 110.354 12.3551 111.036 11.9119C111.717 11.4631 112.544 11.2386 113.516 11.2386C114.425 11.2386 115.217 11.4375 115.893 11.8352C116.57 12.233 117.095 12.8011 117.47 13.5398C117.845 14.2727 118.033 15.1477 118.033 16.1648V24.5H114.402V16.8125C114.408 16.0114 114.203 15.3864 113.788 14.9375C113.374 14.483 112.803 14.2557 112.075 14.2557C111.587 14.2557 111.155 14.3608 110.78 14.571C110.411 14.7812 110.121 15.0881 109.911 15.4915C109.706 15.8892 109.601 16.3693 109.595 16.9318ZM119.894 24.5V11.4091H123.525V24.5H119.894ZM121.718 9.72159C121.178 9.72159 120.715 9.54261 120.329 9.18466C119.948 8.82102 119.758 8.38636 119.758 7.88068C119.758 7.38068 119.948 6.9517 120.329 6.59375C120.715 6.23011 121.178 6.04829 121.718 6.04829C122.258 6.04829 122.718 6.23011 123.099 6.59375C123.485 6.9517 123.678 7.38068 123.678 7.88068C123.678 8.38636 123.485 8.82102 123.099 9.18466C122.718 9.54261 122.258 9.72159 121.718 9.72159ZM134.084 29.4091V22.4034H133.973C133.803 22.767 133.561 23.1278 133.249 23.4858C132.942 23.8381 132.541 24.1307 132.047 24.3636C131.558 24.5966 130.962 24.7131 130.257 24.7131C129.263 24.7131 128.362 24.4574 127.555 23.946C126.754 23.429 126.118 22.6705 125.646 21.6705C125.18 20.6648 124.947 19.4318 124.947 17.9716C124.947 16.4716 125.189 15.2244 125.672 14.2301C126.155 13.2301 126.797 12.483 127.598 11.9886C128.405 11.4886 129.288 11.2386 130.249 11.2386C130.982 11.2386 131.592 11.3636 132.081 11.6136C132.575 11.858 132.973 12.1648 133.274 12.5341C133.581 12.8977 133.814 13.2557 133.973 13.608H134.126V11.4091H137.706V29.4091H134.084ZM131.408 21.8239C131.993 21.8239 132.487 21.6648 132.891 21.3466C133.3 21.0227 133.612 20.571 133.828 19.9915C134.05 19.4119 134.161 18.733 134.161 17.9545C134.161 17.1761 134.053 16.5 133.837 15.9261C133.621 15.3523 133.308 14.9091 132.899 14.5966C132.49 14.2841 131.993 14.1278 131.408 14.1278C130.811 14.1278 130.308 14.2898 129.899 14.6136C129.49 14.9375 129.18 15.3864 128.97 15.9602C128.76 16.5341 128.655 17.1989 128.655 17.9545C128.655 18.7159 128.76 19.3892 128.97 19.9744C129.186 20.554 129.496 21.0085 129.899 21.3381C130.308 21.6619 130.811 21.8239 131.408 21.8239Z" fill="#E5E5E9"/>
</svg>
