<svg width="98" height="71" viewBox="0 0 98 71" fill="none" xmlns="http://www.w3.org/2000/svg">
<path d="M57.0625 21.4337C58.327 20.3715 59.3372 19.0392 60.0187 17.5348C60.7001 16.0304 61.0354 14.3924 61 12.7412C60.875 7.02749 56.2987 2.31624 50.595 2.01624C49.1233 1.93614 47.6506 2.1526 46.2642 2.65276C44.8778 3.15292 43.6061 3.92658 42.5245 4.9278C41.443 5.92902 40.5737 7.13737 39.9682 8.4811C39.3627 9.82483 39.0335 11.2765 39 12.75L36.1937 18.1475C36.1825 18.17 36.1712 18.1925 36.1612 18.215C35.96 18.6839 35.9457 19.212 36.1211 19.6912C36.2966 20.1704 36.6485 20.5643 37.105 20.7925L37.1362 20.8062L40 22.1175V26C40 26.5304 40.2107 27.0391 40.5858 27.4142C40.9608 27.7893 41.4695 28 42 28H48C48.2652 28 48.5195 27.8946 48.7071 27.7071C48.8946 27.5196 49 27.2652 49 27C49 26.7348 48.8946 26.4804 48.7071 26.2929C48.5195 26.1054 48.2652 26 48 26H42V21.4762C42.0001 21.2846 41.9452 21.0969 41.8417 20.9356C41.7382 20.7742 41.5905 20.646 41.4162 20.5662L38 19L40.8837 13.4575C40.9589 13.3166 40.9988 13.1596 41 13C40.9997 10.9604 41.6922 8.98122 42.9639 7.38672C44.2357 5.79222 46.0114 4.67698 48 4.22374V6.17249C47.3328 6.40839 46.7704 6.87256 46.4123 7.48297C46.0543 8.09339 45.9235 8.81073 46.0432 9.50823C46.1628 10.2057 46.5252 10.8385 47.0663 11.2946C47.6074 11.7507 48.2923 12.0009 49 12.0009C49.7077 12.0009 50.3926 11.7507 50.9336 11.2946C51.4747 10.8385 51.8371 10.2057 51.9568 9.50823C52.0764 8.81073 51.9457 8.09339 51.5876 7.48297C51.2295 6.87256 50.6672 6.40839 50 6.17249V3.99999C50.1625 3.99999 50.325 3.99999 50.4875 4.01249C52.2608 4.11407 53.9649 4.73626 55.3864 5.80123C56.808 6.8662 57.8841 8.32668 58.48 9.99999H56C55.8533 9.99994 55.7084 10.0322 55.5755 10.0944C55.4426 10.1566 55.3251 10.2473 55.2312 10.36L52.0425 14.1875C51.3774 13.9397 50.6462 13.9351 49.9781 14.1744C49.3099 14.4138 48.748 14.8817 48.3916 15.4954C48.0352 16.1092 47.9073 16.8292 48.0306 17.5281C48.1538 18.227 48.5203 18.8598 49.0652 19.3146C49.61 19.7694 50.2981 20.0168 51.0078 20.0132C51.7175 20.0095 52.4031 19.755 52.9432 19.2946C53.4834 18.8343 53.8433 18.1977 53.9594 17.4976C54.0754 16.7974 53.9402 16.0788 53.5775 15.4687L56.4687 12H58.9425C58.9725 12.26 58.9908 12.5225 58.9975 12.7875C59.0286 14.2198 58.7187 15.639 58.0931 16.9278C57.4676 18.2167 56.5445 19.3383 55.4 20.2C55.2589 20.3057 55.1484 20.4468 55.0794 20.6091C55.0105 20.7713 54.9857 20.9488 55.0075 21.1237L56.0075 29.1237C56.0379 29.3652 56.1554 29.5874 56.3379 29.7484C56.5203 29.9095 56.7553 29.9985 56.9987 29.9987C57.0405 29.9987 57.0822 29.9962 57.1237 29.9912C57.2541 29.975 57.3799 29.9333 57.4942 29.8684C57.6084 29.8035 57.7087 29.7167 57.7893 29.6131C57.87 29.5094 57.9295 29.3909 57.9643 29.2642C57.9992 29.1376 58.0087 29.0053 57.9925 28.875L57.0625 21.4337ZM49 9.99999C48.8022 9.99999 48.6088 9.94134 48.4444 9.83146C48.28 9.72158 48.1518 9.5654 48.0761 9.38268C48.0004 9.19995 47.9806 8.99888 48.0192 8.8049C48.0578 8.61092 48.153 8.43274 48.2929 8.29289C48.4327 8.15303 48.6109 8.05779 48.8049 8.01921C48.9989 7.98062 49.1999 8.00043 49.3827 8.07611C49.5654 8.1518 49.7216 8.27997 49.8314 8.44442C49.9413 8.60887 50 8.80221 50 8.99999C50 9.26521 49.8946 9.51956 49.7071 9.7071C49.5195 9.89464 49.2652 9.99999 49 9.99999ZM51 18C50.8022 18 50.6088 17.9413 50.4444 17.8315C50.28 17.7216 50.1518 17.5654 50.0761 17.3827C50.0004 17.2 49.9806 16.9989 50.0192 16.8049C50.0578 16.6109 50.153 16.4327 50.2929 16.2929C50.4327 16.153 50.6109 16.0578 50.8049 16.0192C50.9989 15.9806 51.1999 16.0004 51.3827 16.0761C51.5654 16.1518 51.7216 16.28 51.8314 16.4444C51.9413 16.6089 52 16.8022 52 17C52 17.2652 51.8946 17.5196 51.7071 17.7071C51.5195 17.8946 51.2652 18 51 18Z" fill="#E5E5E9"/>
<path d="M5.07955 57.4318V65H1.44886V47.5455H4.97727V54.2188H5.13068C5.42614 53.446 5.90341 52.8409 6.5625 52.4034C7.22159 51.9602 8.0483 51.7386 9.04261 51.7386C9.9517 51.7386 10.7443 51.9375 11.4205 52.3352C12.1023 52.7273 12.6307 53.2926 13.0057 54.0312C13.3864 54.7642 13.5739 55.642 13.5682 56.6648V65H9.9375V57.3125C9.94318 56.5057 9.73864 55.8778 9.32386 55.429C8.91477 54.9801 8.34091 54.7557 7.60227 54.7557C7.10795 54.7557 6.67045 54.8608 6.28977 55.071C5.91477 55.2812 5.61932 55.5881 5.40341 55.9915C5.19318 56.3892 5.08523 56.8693 5.07955 57.4318ZM23.8203 59.4261V51.9091H27.451V65H23.9652V62.6222H23.8288C23.5334 63.3892 23.0419 64.0057 22.3544 64.4716C21.6726 64.9375 20.8402 65.1705 19.8572 65.1705C18.9822 65.1705 18.2124 64.9716 17.5476 64.5739C16.8828 64.1761 16.3629 63.6108 15.9879 62.8778C15.6186 62.1449 15.4311 61.267 15.4254 60.2443V51.9091H19.0561V59.5966C19.0618 60.3693 19.2692 60.9801 19.6783 61.429C20.0874 61.8778 20.6357 62.1023 21.3232 62.1023C21.7607 62.1023 22.1697 62.0028 22.5504 61.804C22.9311 61.5994 23.2379 61.2983 23.4709 60.9006C23.7095 60.5028 23.826 60.0114 23.8203 59.4261ZM29.3551 65V51.9091H32.8153V54.2188H32.9688C33.2415 53.4517 33.696 52.8466 34.3324 52.4034C34.9688 51.9602 35.7301 51.7386 36.6165 51.7386C37.5142 51.7386 38.2784 51.9631 38.9091 52.4119C39.5398 52.8551 39.9602 53.4574 40.1705 54.2188H40.3068C40.5739 53.4688 41.0568 52.8693 41.7557 52.4205C42.4602 51.9659 43.2926 51.7386 44.2528 51.7386C45.4744 51.7386 46.4659 52.1278 47.2273 52.9062C47.9943 53.679 48.3778 54.7756 48.3778 56.196V65H44.7557V56.9119C44.7557 56.1847 44.5625 55.6392 44.1761 55.2756C43.7898 54.9119 43.3068 54.7301 42.7273 54.7301C42.0682 54.7301 41.554 54.9403 41.1847 55.3608C40.8153 55.7756 40.6307 56.3239 40.6307 57.0057V65H37.1108V56.8352C37.1108 56.1932 36.9261 55.6818 36.5568 55.3011C36.1932 54.9205 35.7131 54.7301 35.1165 54.7301C34.7131 54.7301 34.3494 54.8324 34.0256 55.0369C33.7074 55.2358 33.4545 55.517 33.267 55.8807C33.0795 56.2386 32.9858 56.6591 32.9858 57.142V65H29.3551ZM56.1605 65.2557C54.8366 65.2557 53.6918 64.9744 52.7259 64.4119C51.7656 63.8437 51.0241 63.054 50.5014 62.0426C49.9787 61.0256 49.7173 59.8466 49.7173 58.5057C49.7173 57.1534 49.9787 55.9716 50.5014 54.9602C51.0241 53.9432 51.7656 53.1534 52.7259 52.5909C53.6918 52.0227 54.8366 51.7386 56.1605 51.7386C57.4844 51.7386 58.6264 52.0227 59.5866 52.5909C60.5526 53.1534 61.2969 53.9432 61.8196 54.9602C62.3423 55.9716 62.6037 57.1534 62.6037 58.5057C62.6037 59.8466 62.3423 61.0256 61.8196 62.0426C61.2969 63.054 60.5526 63.8437 59.5866 64.4119C58.6264 64.9744 57.4844 65.2557 56.1605 65.2557ZM56.1776 62.4432C56.7798 62.4432 57.2827 62.2727 57.6861 61.9318C58.0895 61.5852 58.3935 61.1136 58.598 60.517C58.8082 59.9205 58.9134 59.2415 58.9134 58.4801C58.9134 57.7188 58.8082 57.0398 58.598 56.4432C58.3935 55.8466 58.0895 55.375 57.6861 55.0284C57.2827 54.6818 56.7798 54.5085 56.1776 54.5085C55.5696 54.5085 55.0582 54.6818 54.6435 55.0284C54.2344 55.375 53.9247 55.8466 53.7145 56.4432C53.5099 57.0398 53.4077 57.7188 53.4077 58.4801C53.4077 59.2415 53.5099 59.9205 53.7145 60.517C53.9247 61.1136 54.2344 61.5852 54.6435 61.9318C55.0582 62.2727 55.5696 62.4432 56.1776 62.4432ZM67.5952 57.4318V65H63.9645V51.9091H67.4247V54.2188H67.5781C67.8679 53.4574 68.3537 52.8551 69.0355 52.4119C69.7173 51.9631 70.544 51.7386 71.5156 51.7386C72.4247 51.7386 73.2173 51.9375 73.8935 52.3352C74.5696 52.733 75.0952 53.3011 75.4702 54.0398C75.8452 54.7727 76.0327 55.6477 76.0327 56.6648V65H72.402V57.3125C72.4077 56.5114 72.2031 55.8864 71.7884 55.4375C71.3736 54.983 70.8026 54.7557 70.0753 54.7557C69.5866 54.7557 69.1548 54.8608 68.7798 55.071C68.4105 55.2812 68.1207 55.5881 67.9105 55.9915C67.706 56.3892 67.6009 56.8693 67.5952 57.4318ZM77.8942 65V51.9091H81.5249V65H77.8942ZM79.718 50.2216C79.1783 50.2216 78.7152 50.0426 78.3288 49.6847C77.9482 49.321 77.7578 48.8864 77.7578 48.3807C77.7578 47.8807 77.9482 47.4517 78.3288 47.0938C78.7152 46.7301 79.1783 46.5483 79.718 46.5483C80.2578 46.5483 80.718 46.7301 81.0987 47.0938C81.4851 47.4517 81.6783 47.8807 81.6783 48.3807C81.6783 48.8864 81.4851 49.321 81.0987 49.6847C80.718 50.0426 80.2578 50.2216 79.718 50.2216ZM92.0838 69.9091V62.9034H91.973C91.8026 63.267 91.5611 63.6278 91.2486 63.9858C90.9418 64.3381 90.5412 64.6307 90.0469 64.8636C89.5582 65.0966 88.9616 65.2131 88.2571 65.2131C87.2628 65.2131 86.3622 64.9574 85.5554 64.446C84.7543 63.929 84.1179 63.1705 83.6463 62.1705C83.1804 61.1648 82.9474 59.9318 82.9474 58.4716C82.9474 56.9716 83.1889 55.7244 83.6719 54.7301C84.1548 53.7301 84.7969 52.983 85.598 52.4886C86.4048 51.9886 87.2884 51.7386 88.2486 51.7386C88.9815 51.7386 89.5923 51.8636 90.081 52.1136C90.5753 52.358 90.973 52.6648 91.2741 53.0341C91.581 53.3977 91.8139 53.7557 91.973 54.108H92.1264V51.9091H95.706V69.9091H92.0838ZM89.4077 62.3239C89.9929 62.3239 90.4872 62.1648 90.8906 61.8466C91.2997 61.5227 91.6122 61.071 91.8281 60.4915C92.0497 59.9119 92.1605 59.233 92.1605 58.4545C92.1605 57.6761 92.0526 57 91.8366 56.4261C91.6207 55.8523 91.3082 55.4091 90.8991 55.0966C90.4901 54.7841 89.9929 54.6278 89.4077 54.6278C88.8111 54.6278 88.3082 54.7898 87.8991 55.1136C87.4901 55.4375 87.1804 55.8864 86.9702 56.4602C86.7599 57.0341 86.6548 57.6989 86.6548 58.4545C86.6548 59.2159 86.7599 59.8892 86.9702 60.4744C87.1861 61.054 87.4957 61.5085 87.8991 61.8381C88.3082 62.1619 88.8111 62.3239 89.4077 62.3239Z" fill="#E5E5E9"/>
</svg>
