<svg width="16" height="17" viewBox="0 0 16 17" fill="none" xmlns="http://www.w3.org/2000/svg">
<path d="M12.0313 11.2169C12.6635 10.6858 13.1686 10.0196 13.5094 9.2674C13.8501 8.51522 14.0178 7.69619 14 6.87063C13.9375 4.01375 11.6494 1.65813 8.79752 1.50813C8.06169 1.46808 7.32531 1.57631 6.63212 1.82639C5.93894 2.07647 5.30307 2.4633 4.76229 2.96391C4.22152 3.46452 3.78686 4.06869 3.48412 4.74056C3.18139 5.41243 3.01676 6.13828 3.00002 6.875L1.59689 9.57375C1.59127 9.585 1.58564 9.59626 1.58064 9.6075C1.48005 9.84197 1.47288 10.106 1.5606 10.3456C1.64832 10.5852 1.8243 10.7822 2.05252 10.8963L2.06814 10.9031L3.50002 11.5588V13.5C3.50002 13.7652 3.60537 14.0196 3.79291 14.2071C3.98045 14.3946 4.2348 14.5 4.50002 14.5H7.50002C7.63262 14.5 7.7598 14.4473 7.85357 14.3536C7.94734 14.2598 8.00002 14.1326 8.00002 14C8.00002 13.8674 7.94734 13.7402 7.85357 13.6465C7.7598 13.5527 7.63262 13.5 7.50002 13.5H4.50002V11.2381C4.50009 11.1423 4.47262 11.0485 4.42087 10.9678C4.36912 10.8871 4.29528 10.823 4.20814 10.7831L2.50002 10L3.94189 7.22875C3.97947 7.15832 3.99942 7.07983 4.00002 7C3.99987 5.98022 4.34611 4.99062 4.982 4.19337C5.6179 3.39612 6.50573 2.8385 7.50002 2.61188V3.58625C7.16641 3.7042 6.88524 3.93629 6.7062 4.24149C6.52716 4.5467 6.46178 4.90537 6.52162 5.25412C6.58145 5.60287 6.76265 5.91924 7.03319 6.14731C7.30372 6.37538 7.64617 6.50047 8.00002 6.50047C8.35386 6.50047 8.69631 6.37538 8.96685 6.14731C9.23738 5.91924 9.41858 5.60287 9.47841 5.25412C9.53825 4.90537 9.47287 4.5467 9.29383 4.24149C9.11479 3.93629 8.83362 3.7042 8.50002 3.58625V2.5C8.58127 2.5 8.66252 2.5 8.74377 2.50625C9.63044 2.55704 10.4825 2.86814 11.1933 3.40062C11.904 3.93311 12.4421 4.66335 12.74 5.5H11.5C11.4267 5.49998 11.3542 5.51609 11.2878 5.5472C11.2214 5.5783 11.1626 5.62364 11.1156 5.68L9.52127 7.59375C9.18875 7.46985 8.82312 7.46753 8.48906 7.58721C8.15499 7.70689 7.87401 7.94085 7.69582 8.24772C7.51762 8.55459 7.45368 8.91458 7.51532 9.26405C7.57695 9.61351 7.76018 9.92991 8.03261 10.1573C8.30503 10.3847 8.6491 10.5084 9.00395 10.5066C9.3588 10.5048 9.70157 10.3775 9.97164 10.1473C10.2417 9.91715 10.4217 9.59887 10.4797 9.2488C10.5377 8.89872 10.4701 8.5394 10.2888 8.23438L11.7344 6.5H12.9713C12.9863 6.63 12.9954 6.76125 12.9988 6.89375C13.0144 7.60991 12.8594 8.31949 12.5466 8.96392C12.2338 9.60836 11.7723 10.1692 11.2 10.6C11.1295 10.6529 11.0742 10.7234 11.0397 10.8045C11.0053 10.8856 10.9929 10.9744 11.0038 11.0619L11.5038 15.0619C11.519 15.1826 11.5777 15.2937 11.669 15.3742C11.7602 15.4548 11.8777 15.4993 11.9994 15.4994C12.0203 15.4994 12.0412 15.4981 12.0619 15.4956C12.1271 15.4875 12.19 15.4666 12.2471 15.4342C12.3042 15.4018 12.3544 15.3584 12.3947 15.3066C12.435 15.2547 12.4648 15.1955 12.4822 15.1321C12.4996 15.0688 12.5044 15.0027 12.4963 14.9375L12.0313 11.2169ZM8.00002 5.5C7.90113 5.5 7.80446 5.47068 7.72223 5.41574C7.64001 5.3608 7.57592 5.28271 7.53808 5.19135C7.50023 5.09998 7.49033 4.99945 7.50962 4.90246C7.52892 4.80547 7.57654 4.71638 7.64646 4.64645C7.71639 4.57652 7.80548 4.5289 7.90247 4.50961C7.99946 4.49032 8.09999 4.50022 8.19136 4.53806C8.28272 4.57591 8.36081 4.63999 8.41575 4.72222C8.47069 4.80444 8.50002 4.90111 8.50002 5C8.50002 5.13261 8.44734 5.25979 8.35357 5.35356C8.2598 5.44733 8.13262 5.5 8.00002 5.5ZM9.00002 9.5C8.90113 9.5 8.80446 9.47068 8.72223 9.41574C8.64001 9.3608 8.57592 9.28271 8.53808 9.19135C8.50023 9.09998 8.49033 8.99945 8.50962 8.90246C8.52892 8.80547 8.57654 8.71638 8.64646 8.64645C8.71639 8.57652 8.80548 8.5289 8.90247 8.50961C8.99946 8.49032 9.09999 8.50022 9.19136 8.53806C9.28272 8.57591 9.36081 8.63999 9.41575 8.72222C9.47069 8.80444 9.50002 8.90111 9.50002 9C9.50002 9.13261 9.44734 9.25979 9.35357 9.35356C9.2598 9.44733 9.13262 9.5 9.00002 9.5Z" fill="#EB94EB"/>
</svg>
