<svg width="25" height="28" viewBox="0 0 25 28" fill="none" xmlns="http://www.w3.org/2000/svg">
<path d="M21.0625 19.4338C22.3271 18.3715 23.3373 17.0392 24.0187 15.5348C24.7001 14.0304 25.0355 12.3924 25 10.7413C24.875 5.02751 20.2987 0.316259 14.595 0.0162587C13.1233 -0.0638432 11.6506 0.152613 10.2642 0.652773C8.87784 1.15293 7.60611 1.92659 6.52455 2.92781C5.443 3.92903 4.57368 5.13739 3.96821 6.48112C3.36275 7.82485 3.03349 9.27655 3 10.75L0.193748 16.1475C0.182498 16.17 0.171248 16.1925 0.161248 16.215C-0.0399393 16.6839 -0.0542784 17.212 0.121167 17.6912C0.296612 18.1704 0.648572 18.5644 1.105 18.7925L1.13625 18.8063L4 20.1175V24C4 24.5304 4.21071 25.0392 4.58578 25.4142C4.96086 25.7893 5.46956 26 6 26H12C12.2652 26 12.5196 25.8947 12.7071 25.7071C12.8946 25.5196 13 25.2652 13 25C13 24.7348 12.8946 24.4804 12.7071 24.2929C12.5196 24.1054 12.2652 24 12 24H6V19.4763C6.00014 19.2846 5.9452 19.0969 5.8417 18.9356C5.73821 18.7742 5.59053 18.646 5.41625 18.5663L2 17L4.88375 11.4575C4.95891 11.3166 4.9988 11.1597 5 11C4.99971 8.96043 5.69219 6.98124 6.96397 5.38674C8.23576 3.79224 10.0114 2.677 12 2.22376V4.17251C11.3328 4.4084 10.7704 4.87258 10.4124 5.48299C10.0543 6.0934 9.92353 6.81075 10.0432 7.50824C10.1629 8.20574 10.5253 8.83847 11.0663 9.29461C11.6074 9.75076 12.2923 10.0009 13 10.0009C13.7077 10.0009 14.3926 9.75076 14.9337 9.29461C15.4747 8.83847 15.8371 8.20574 15.9568 7.50824C16.0765 6.81075 15.9457 6.0934 15.5876 5.48299C15.2296 4.87258 14.6672 4.4084 14 4.17251V2.00001C14.1625 2.00001 14.325 2.00001 14.4875 2.01251C16.2608 2.11409 17.9649 2.73627 19.3865 3.80124C20.8081 4.86621 21.8841 6.32669 22.48 8.00001H20C19.8533 7.99995 19.7084 8.03218 19.5755 8.09439C19.4427 8.15661 19.3251 8.24729 19.2312 8.36001L16.0425 12.1875C15.3775 11.9397 14.6462 11.9351 13.9781 12.1744C13.31 12.4138 12.748 12.8817 12.3916 13.4954C12.0352 14.1092 11.9073 14.8292 12.0306 15.5281C12.1539 16.227 12.5203 16.8598 13.0652 17.3146C13.61 17.7694 14.2982 18.0168 15.0079 18.0132C15.7176 18.0095 16.4031 17.755 16.9432 17.2947C17.4834 16.8343 17.8433 16.1977 17.9594 15.4976C18.0755 14.7974 17.9402 14.0788 17.5775 13.4688L20.4687 10H22.9425C22.9725 10.26 22.9908 10.5225 22.9975 10.7875C23.0287 12.2198 22.7187 13.639 22.0932 14.9278C21.4676 16.2167 20.5445 17.3383 19.4 18.2C19.259 18.3057 19.1484 18.4469 19.0795 18.6091C19.0105 18.7713 18.9857 18.9489 19.0075 19.1238L20.0075 27.1238C20.0379 27.3653 20.1554 27.5874 20.3379 27.7485C20.5204 27.9095 20.7553 27.9985 20.9987 27.9988C21.0405 27.9988 21.0823 27.9962 21.1237 27.9913C21.2541 27.975 21.38 27.9333 21.4942 27.8684C21.6084 27.8035 21.7087 27.7168 21.7894 27.6131C21.87 27.5094 21.9295 27.3909 21.9644 27.2643C21.9992 27.1376 22.0088 27.0054 21.9925 26.875L21.0625 19.4338ZM13 8.00001C12.8022 8.00001 12.6089 7.94136 12.4444 7.83148C12.28 7.7216 12.1518 7.56542 12.0761 7.38269C12.0004 7.19997 11.9806 6.9989 12.0192 6.80492C12.0578 6.61094 12.153 6.43275 12.2929 6.2929C12.4327 6.15305 12.6109 6.05781 12.8049 6.01922C12.9989 5.98064 13.2 6.00044 13.3827 6.07613C13.5654 6.15182 13.7216 6.27999 13.8315 6.44444C13.9413 6.60889 14 6.80223 14 7.00001C14 7.26523 13.8946 7.51958 13.7071 7.70712C13.5196 7.89465 13.2652 8.00001 13 8.00001ZM15 16C14.8022 16 14.6089 15.9414 14.4444 15.8315C14.28 15.7216 14.1518 15.5654 14.0761 15.3827C14.0004 15.2 13.9806 14.9989 14.0192 14.8049C14.0578 14.6109 14.153 14.4328 14.2929 14.2929C14.4327 14.153 14.6109 14.0578 14.8049 14.0192C14.9989 13.9806 15.2 14.0004 15.3827 14.0761C15.5654 14.1518 15.7216 14.28 15.8315 14.4444C15.9413 14.6089 16 14.8022 16 15C16 15.2652 15.8946 15.5196 15.7071 15.7071C15.5196 15.8947 15.2652 16 15 16Z" fill="#E5E5E9"/>
</svg>
